<svg data-name="Layer 1" xmlns="http://www.w3.org/2000/svg" viewBox="0 0 288 288"><title>FAB_logo</title><path d="M32.46 213.3c.52-19.38 0-38.77.33-58.15.29-15.81-.07-31.62.25-47.42.16-7.86 0-15.72.26-23.57.2-5.42.07-10.83.16-16.24 0-1.83.06-1.91 1.95-1.87 20.35.44 40.7 0 61.05.32 18.38.3 36.76-.1 55.14.25 12.19.24 24.37.09 36.55.2 1.64 0 1.84.16 1.8 1.8-.47 19.82.05 39.65-.31 59.47-.32 17.47.11 34.94-.26 52.4-.28 13.1-.08 26.19-.21 39.29 0 2-.21 2.24-2.18 2.17-18.6-.62-37.2-.41-55.79-.48-5.2 0-10.4.07-15.6 0-19.78-.42-39.56 0-59.34-.31-7.38-.16-14.75-.16-22.13-.16-1.22 0-1.74-.38-1.69-1.65.07-2.03.02-4.04.02-6.05zm128.68 6H185c.85 0 1.56 0 1.58-1.2 0-2 .19-3.92.21-5.88.16-14.41 0-28.81.2-43.22.31-20.26 0-40.52.3-60.78.19-12.48 0-25 .1-37.46 0-1.25-.28-1.62-1.57-1.63-12.26-.09-24.53.07-36.8-.16-18.64-.35-37.28.09-55.93-.3-13.79-.29-27.59.18-41.38-.26-4.71-.15-9.43 0-14.15-.06-1.23 0-1.68.36-1.69 1.64-.07 7.81.08 15.62-.17 23.44-.33 10.29 0 20.6-.24 30.9-.3 15.36-.06 30.73-.28 46.1-.21 14.94-.07 29.87-.08 44.81v1.7c-.17 1.79-.18 1.78 1.66 1.8 15.28.14 30.56-.08 45.84.21 18.56.34 37.11-.14 55.67.28 7.58.22 15.22.08 22.87.08zM244 182.19c.78.37 1.57.72 2.33 1.11a6.86 6.86 0 0 1 3.64 8.13c-1.56 5.82-5.63 9.27-11 11.46a33.79 33.79 0 0 1-13.05 2.34h-19.38c-2 0-2.09-.21-1.41-2q4.45-12 8.9-23.91c2-5.44 4.12-10.85 6.12-16.3a2.43 2.43 0 0 1 2.69-1.85c6.33.1 12.67 0 19 .11a23.1 23.1 0 0 1 9.93 1.93 6.77 6.77 0 0 1 3.49 8.08c-1.63 5.31-5.21 8.4-10.14 10.31-.32.13-.65.25-1 .39-.04.01-.07.06-.12.2zm-19 14.33c1.26 0 2.53.06 3.79 0 2.82-.16 5.6-.49 7.8-2.53a4.48 4.48 0 0 0 1.7-4.05c-.27-1.54-1.77-1.76-3-2.16a4.27 4.27 0 0 0-.64-.12c-3.55-.5-7.14-.21-10.7-.48-.82-.07-1.13.44-1.38 1.11-.86 2.38-1.74 4.75-2.66 7.1-.33.85 0 1.13.78 1.13zm6.34-18.07c1.18 0 2.36.06 3.53 0 2.29-.16 4.5-.58 6.16-2.4 1-1.11 1.83-2.33 1.35-3.86s-2-1.89-3.4-2a72.67 72.67 0 0 0-8.35-.32 1.41 1.41 0 0 0-1.49 1c-.82 2.2-1.65 4.4-2.52 6.58-.37.91 0 1.06.8 1.05 1.29-.07 2.58-.05 3.9-.05zm11.79-46.9h-5.11c-1 0-1.62-.37-1.7-1.5-.13-1.91-.37-3.81-.54-5.73-.15-1.76-.31-1.93-2-1.94h-16a3.08 3.08 0 0 0-2.66 1.31c-1.91 2.38-3.92 4.68-5.88 7a1.8 1.8 0 0 1-1.51.62h-10.49c-.38 0-.85.08-1-.36s.24-.7.5-1q9.49-10.8 19-21.61c4.39-5 8.82-9.9 13.22-14.86q2.13-2.4 4.17-4.87a3.19 3.19 0 0 1 2.69-1.34h6.55c1.2 0 1.72.55 1.87 1.7.93 7.18 1.9 14.35 2.84 21.53.86 6.52 1.69 13 2.57 19.57.14 1-.2 1.49-1.23 1.48-1.8-.01-3.54 0-5.29 0zm-9.41-30h-.37q-4.57 5.47-9.13 10.94c-.19.22-.48.47-.32.8s.54.21.83.21h7.34c2.47 0 2.54 0 2.4-2.44-.18-3.19-.47-6.35-.75-9.5z"/><path d="M154.75 181.7c.62.21 1 .32 1.33.45 4.61 1.7 6.34 5.6 4.66 10.21-1.78 4.86-5.39 7.84-9.94 9.83a30.06 30.06 0 0 1-12.21 2.51h-21.08c-1.76 0-1.87-.12-1.25-1.8 1.81-4.9 3.69-9.79 5.52-14.69q3.3-8.83 6.57-17.67c1.06-2.86 2.15-5.71 3.2-8.58a1.75 1.75 0 0 1 1.87-1.3c7.55.1 15.1-.28 22.64.29 2.88.22 5.73.73 8.14 2.53a5.81 5.81 0 0 1 2.5 5.91c-.89 5.53-4.34 9-9.2 11.22-.82.39-1.67.66-2.75 1.09zM136.83 196h3.41a12 12 0 0 0 4.25-.64 6.83 6.83 0 0 0 4.78-4.28 2.32 2.32 0 0 0-1.26-3.26 8 8 0 0 0-3.39-.92c-3.14-.06-6.28 0-9.43-.06a1.24 1.24 0 0 0-1.35.8c-.92 2.4-1.86 4.8-2.78 7.2-.29.75-.08 1.16.8 1.14 1.66.02 3.32.02 4.97.02zm8.72-26.43h-4a1.2 1.2 0 0 0-1.31.83c-.79 2.17-1.61 4.33-2.42 6.48-.28.74 0 1 .74 1.09a37.53 37.53 0 0 0 6 .19c2.54-.13 5.07-.44 7.14-2.11 1.31-1 2.26-2.47 1.89-4.19s-2-1.83-3.42-2.08a34.93 34.93 0 0 0-4.62-.21zM145 114h-9.14a1.56 1.56 0 0 0-1.72 1.2c-1.72 4.76-3.53 9.49-5.24 14.25a1.73 1.73 0 0 1-1.9 1.36h-9c-1.07 0-1.41-.28-1-1.4 4-10.62 7.93-21.26 11.9-31.89 1.17-3.14 2.4-6.27 3.58-9.42a1.79 1.79 0 0 1 1.94-1.37c10.56.31 21.13.22 31.69.29 1.27 0 1.45.32 1 1.53-.81 2.17-1.69 4.31-2.42 6.51a1.88 1.88 0 0 1-2.17 1.39c-6.33-.11-12.66-.18-19-.25-2.62 0-2.19.08-2.89 2s-1.3 3.52-2 5.26c-.37.88-.15 1.16.79 1.15 3.49 0 7 .06 10.48 0 2.67-.06 5.31.31 8 .26.95 0 1.28.36.92 1.29-.92 2.36-1.81 4.73-2.71 7.1a1.34 1.34 0 0 1-1.48 1c-3.46-.43-6.87-.11-9.63-.26z"/></svg>